<svg width="190" height="58" viewBox="0 0 190 58" fill="none" xmlns="http://www.w3.org/2000/svg">
<path d="M42.4121 21.782C42.4121 17.7349 39.2057 14.4541 35.2504 14.4541C31.2951 14.4541 28.0887 17.7349 28.0887 21.782C28.0887 25.8291 31.2951 29.1099 35.2504 29.1099C39.2057 29.1099 42.4121 25.8291 42.4121 21.782Z" fill="#0C6F71"/>
<path d="M42.0332 43.5415V58H42.0295C26.5178 58 13.944 45.1344 13.944 29.2627C13.944 29.2055 13.944 29.1483 13.9453 29.092H28.1519C28.145 29.2636 28.1414 29.4366 28.1414 29.6096C28.1414 37.3052 34.2381 43.5448 41.7592 43.5448C41.8499 43.5448 41.942 43.5434 42.0332 43.5411V43.5415Z" fill="#1877F2"/>
<path d="M0 14.4495V28.9079H0.00366301C15.5154 28.9079 28.0892 16.0423 28.0892 0.170629C28.0892 0.11344 28.0892 0.0562511 28.0878 0H13.8813C13.8882 0.171566 13.8918 0.344537 13.8918 0.517509C13.8918 8.21313 7.79505 14.4528 0.27396 14.4528C0.18325 14.4528 0.0911675 14.4514 0 14.449V14.4495Z" fill="#F7D046"/>
<path d="M62.1192 33.1093V11.8984H53.9114V5.76562H77.8481V11.8984H69.6783V33.1093H62.1192Z" fill="white"/>
<path d="M82.5815 33.1093V5.76562H90.1407V33.1093H82.5815ZM89.606 22.4455V16.0394H100.983V22.4455H89.606ZM100.448 33.1093V5.76562H108.007V33.1093H100.448Z" fill="white"/>
<path d="M115.26 33.1093V5.76562H122.819V33.1093H115.26Z" fill="white"/>
<path d="M130.11 33.1093V5.76562H136.333L151.069 23.9685H148.13V5.76562H155.536V33.1093H149.313L134.577 14.9064H137.517V33.1093H130.11Z" fill="white"/>
<path d="M162.79 33.1093V5.76562H170.272V33.1093H162.79ZM169.546 27.0548L169.126 18.3832L180.618 5.76609H188.94L177.487 18.4615L173.288 22.9536L169.546 27.0553V27.0548ZM180.732 33.1093L172.028 21.8202L176.953 16.4294L189.513 33.1088H180.733L180.732 33.1093Z" fill="white"/>
<path d="M64.2794 48.2328L61.6249 41.1842H62.848L65.2163 47.5582H64.5136L66.9079 41.1842H68.0356L65.3898 48.2328H64.2794Z" fill="white"/>
<path d="M92.6275 44.1144H95.6463V45.1918H92.6275V44.1144ZM92.7142 47.1352H96.1408V48.2328H91.5865V41.1842H96.0194V42.2818H92.7142V47.1352Z" fill="white"/>
<path d="M120.3 48.2328V41.1842H122.798C123.336 41.1842 123.796 41.2849 124.177 41.4863C124.565 41.6877 124.863 41.9763 125.071 42.3522C125.279 42.7282 125.383 43.1746 125.383 43.6915C125.383 44.2084 125.279 44.6548 125.071 45.0307C124.863 45.3999 124.565 45.6852 124.177 45.8866C123.796 46.0813 123.336 46.1786 122.798 46.1786H120.924L121.427 45.5845V48.2328H120.3ZM124.273 48.2328L122.737 45.6752H123.943L125.487 48.2328H124.273ZM121.427 45.7255L120.924 45.1012H122.746C123.243 45.1012 123.616 44.977 123.865 44.7286C124.119 44.4803 124.247 44.1345 124.247 43.6915C124.247 43.2417 124.119 42.896 123.865 42.6543C123.616 42.4127 123.243 42.2918 122.746 42.2918H120.924L121.427 41.6474V45.7255Z" fill="white"/>
<path d="M151.429 48.3335C150.955 48.3335 150.501 48.2563 150.067 48.1019C149.633 47.9408 149.289 47.736 149.035 47.4877L149.425 46.4707C149.668 46.6922 149.969 46.8768 150.327 47.0245C150.686 47.1722 151.053 47.246 151.429 47.246C151.747 47.246 152.004 47.2057 152.201 47.1252C152.398 47.0446 152.542 46.9372 152.635 46.8029C152.727 46.662 152.774 46.5042 152.774 46.3297C152.774 46.1149 152.707 45.9437 152.574 45.8161C152.441 45.6819 152.268 45.5778 152.054 45.504C151.845 45.4234 151.611 45.3496 151.351 45.2825C151.096 45.2153 150.839 45.1381 150.579 45.0509C150.324 44.9569 150.09 44.8394 149.876 44.6984C149.668 44.5507 149.497 44.3561 149.364 44.1144C149.231 43.8727 149.165 43.5639 149.165 43.188C149.165 42.8054 149.252 42.4563 149.425 42.1408C149.604 41.8186 149.873 41.5635 150.232 41.3755C150.596 41.1808 151.056 41.0835 151.611 41.0835C151.975 41.0835 152.337 41.1372 152.695 41.2446C153.054 41.352 153.366 41.5064 153.632 41.7078L153.277 42.7248C153.005 42.5369 152.724 42.3992 152.435 42.312C152.146 42.218 151.868 42.171 151.602 42.171C151.29 42.171 151.036 42.2146 150.839 42.3019C150.648 42.3892 150.506 42.5033 150.414 42.6443C150.327 42.7852 150.284 42.9463 150.284 43.1276C150.284 43.3424 150.347 43.5169 150.475 43.6512C150.608 43.7788 150.778 43.8794 150.987 43.9533C151.2 44.0271 151.438 44.101 151.698 44.1748C151.958 44.2419 152.215 44.3191 152.47 44.4064C152.73 44.4937 152.964 44.6078 153.173 44.7488C153.387 44.8897 153.557 45.0811 153.684 45.3227C153.817 45.5644 153.884 45.8698 153.884 46.2391C153.884 46.615 153.794 46.9641 153.615 47.2863C153.441 47.6018 153.173 47.8569 152.808 48.0516C152.444 48.2395 151.984 48.3335 151.429 48.3335Z" fill="white"/>
<path d="M178.945 44.1144H181.964V45.1918H178.945V44.1144ZM179.032 47.1352H182.458V48.2328H177.904V41.1842H182.337V42.2818H179.032V47.1352Z" fill="white"/>
</svg>
