<svg width="132" height="40" viewBox="0 0 132 40" fill="none" xmlns="http://www.w3.org/2000/svg">
<path d="M29.2495 15.0221C29.2495 12.231 27.0382 9.96839 24.3104 9.96839C21.5826 9.96839 19.3713 12.231 19.3713 15.0221C19.3713 17.8132 21.5826 20.0758 24.3104 20.0758C27.0382 20.0758 29.2495 17.8132 29.2495 15.0221Z" fill="#14B572"/>
<path d="M28.9881 30.0287V40H28.9856C18.2878 40 9.61621 31.1272 9.61621 20.1812C9.61621 20.1418 9.61621 20.1023 9.61716 20.0635H19.4148C19.4101 20.1818 19.4075 20.3011 19.4075 20.4204C19.4075 25.7277 23.6122 30.031 28.7992 30.031C28.8617 30.031 28.9252 30.03 28.9881 30.0284V30.0287Z" fill="#1877F2"/>
<path d="M0 9.96516V19.9365H0.00252622C10.7003 19.9365 19.3719 11.0637 19.3719 0.117675C19.3719 0.0782347 19.3719 0.0387938 19.371 0H9.57331C9.57805 0.118321 9.58058 0.237611 9.58058 0.356902C9.58058 5.66422 5.3759 9.96743 0.188938 9.96743C0.12638 9.96743 0.0628742 9.96646 0 9.96484V9.96516Z" fill="#F7D046"/>
<path d="M38.6414 23.2387V7.7978H32.6664V3.33333H50.0916V7.7978H44.1442V23.2387H38.6414Z" fill="black"/>
<path d="M53.5371 23.2387V3.33333H59.0399V23.2387H53.5371ZM58.6507 15.4757V10.8123H66.9326V15.4757H58.6507ZM66.5434 23.2387V3.33333H72.0462V23.2387H66.5434Z" fill="black"/>
<path d="M77.3264 23.2387V3.33333H82.8292V23.2387H77.3264Z" fill="black"/>
<path d="M88.1366 23.2387V3.33333H92.6666L103.394 16.5844H101.254V3.33333H106.646V23.2387H102.116L91.3883 9.98755H93.528V23.2387H88.1366Z" fill="black"/>
<path d="M111.927 23.2387V3.33333H117.374V23.2387H111.927ZM116.845 18.8312L116.54 12.5185L124.905 3.33367H130.963L122.626 12.5755L119.569 15.8457L116.845 18.8315V18.8312ZM124.988 23.2387L118.652 15.0205L122.237 11.0962L131.381 23.2383H124.989L124.988 23.2387Z" fill="black"/>
<path d="M40.2139 36.5629L38.2815 31.4317H39.1719L40.8959 36.0717H40.3844L42.1274 31.4317H42.9483L41.0222 36.5629H40.2139Z" fill="black"/>
<path d="M60.8505 33.5648H63.0481V34.3491H60.8505V33.5648ZM60.9136 35.7639H63.4081V36.5629H60.0927V31.4317H63.3197V32.2307H60.9136V35.7639Z" fill="black"/>
<path d="M80.995 36.5629V31.4317H82.8137C83.2052 31.4317 83.5399 31.505 83.8178 31.6516C84.0999 31.7982 84.3167 32.0083 84.4682 32.282C84.6198 32.5557 84.6956 32.8806 84.6956 33.2569C84.6956 33.6332 84.6198 33.9582 84.4682 34.2319C84.3167 34.5006 84.0999 34.7083 83.8178 34.8549C83.5399 34.9966 83.2052 35.0675 82.8137 35.0675H81.4496L81.8159 34.635V36.5629H80.995ZM83.8872 36.5629L82.7695 34.701H83.6473L84.7714 36.5629H83.8872ZM81.8159 34.7376L81.4496 34.2832H82.7758C83.1379 34.2832 83.4094 34.1928 83.5904 34.0119C83.7757 33.8311 83.8683 33.5795 83.8683 33.2569C83.8683 32.9295 83.7757 32.6778 83.5904 32.5019C83.4094 32.326 83.1379 32.238 82.7758 32.238H81.4496L81.8159 31.7689V34.7376Z" fill="black"/>
<path d="M103.656 36.6362C103.311 36.6362 102.98 36.58 102.665 36.4676C102.349 36.3503 102.098 36.2012 101.913 36.0204L102.197 35.2801C102.374 35.4413 102.593 35.5757 102.854 35.6832C103.115 35.7908 103.382 35.8445 103.656 35.8445C103.888 35.8445 104.075 35.8152 104.218 35.7565C104.361 35.6979 104.467 35.6197 104.534 35.522C104.601 35.4194 104.635 35.3045 104.635 35.1775C104.635 35.0211 104.587 34.8965 104.49 34.8036C104.393 34.7059 104.267 34.6301 104.111 34.5764C103.959 34.5177 103.789 34.464 103.599 34.4151C103.414 34.3662 103.227 34.31 103.037 34.2465C102.852 34.1781 102.682 34.0926 102.526 33.99C102.374 33.8824 102.25 33.7407 102.153 33.5648C102.056 33.3889 102.008 33.1641 102.008 32.8904C102.008 32.6119 102.071 32.3578 102.197 32.1281C102.328 31.8935 102.524 31.7078 102.785 31.571C103.05 31.4293 103.385 31.3584 103.789 31.3584C104.054 31.3584 104.317 31.3975 104.578 31.4757C104.839 31.5539 105.067 31.6663 105.26 31.8129L105.001 32.5532C104.803 32.4164 104.599 32.3162 104.389 32.2527C104.178 32.1843 103.976 32.1501 103.782 32.1501C103.555 32.1501 103.37 32.1818 103.227 32.2454C103.088 32.3089 102.985 32.392 102.917 32.4946C102.854 32.5972 102.823 32.7145 102.823 32.8464C102.823 33.0028 102.869 33.1299 102.961 33.2276C103.058 33.3205 103.183 33.3938 103.334 33.4475C103.49 33.5013 103.662 33.555 103.852 33.6088C104.041 33.6576 104.229 33.7138 104.414 33.7774C104.603 33.8409 104.774 33.924 104.925 34.0266C105.081 34.1292 105.205 34.2685 105.298 34.4444C105.395 34.6204 105.443 34.8427 105.443 35.1115C105.443 35.3851 105.378 35.6393 105.248 35.8738C105.121 36.1035 104.925 36.2892 104.66 36.4309C104.395 36.5678 104.06 36.6362 103.656 36.6362Z" fill="black"/>
<path d="M123.687 33.5648H125.885V34.3491H123.687V33.5648ZM123.75 35.7639H126.244V36.5629H122.929V31.4317H126.156V32.2307H123.75V35.7639Z" fill="black"/>
</svg>
