<svg width="158" height="48" viewBox="0 0 158 48" fill="none" xmlns="http://www.w3.org/2000/svg">
<path d="M35.0991 18.0266C35.0991 14.6773 32.4456 11.9622 29.1723 11.9622C25.899 11.9622 23.2454 14.6773 23.2454 18.0266C23.2454 21.3759 25.899 24.0911 29.1723 24.0911C32.4456 24.0911 35.0991 21.3759 35.0991 18.0266Z" fill="#14B572"/>
<path d="M34.7854 36.0341V47.9997H34.7824C21.9452 47.9997 11.5394 37.3524 11.5394 24.2171C11.5394 24.1698 11.5394 24.1225 11.5405 24.0759H23.2975C23.2919 24.2179 23.2888 24.3611 23.2888 24.5042C23.2888 30.873 28.3344 36.0369 34.5587 36.0369C34.6337 36.0369 34.7099 36.0357 34.7854 36.0338V36.0341Z" fill="#1877F2"/>
<path d="M0 11.9582V23.9238H0.00303143C12.8402 23.9238 23.246 13.2764 23.246 0.14121C23.246 0.0938817 23.246 0.0465526 23.2449 0H11.4879C11.4935 0.141986 11.4966 0.285134 11.4966 0.428283C11.4966 6.79707 6.45101 11.9609 0.226723 11.9609C0.151654 11.9609 0.0754483 11.9598 0 11.9578V11.9582Z" fill="#F7D046"/>
<path d="M46.3693 27.8864V9.35737H39.1993V4H60.1093V9.35737H52.9726V27.8864H46.3693Z" fill="white"/>
<path d="M64.2439 27.8864V4H70.8472V27.8864H64.2439ZM70.3802 18.5709V12.9748H80.3183V18.5709H70.3802ZM79.8513 27.8864V4H86.4546V27.8864H79.8513Z" fill="white"/>
<path d="M92.7906 27.8864V4H99.3939V27.8864H92.7906Z" fill="white"/>
<path d="M105.763 27.8864V4H111.199L124.072 19.9013H121.504V4H127.974V27.8864H122.538L109.665 11.9851H112.232V27.8864H105.763Z" fill="white"/>
<path d="M134.31 27.8864V4H140.847V27.8864H134.31ZM140.213 22.5974L139.846 15.0223L149.884 4.00041H157.154L147.15 15.0906L143.481 19.0148L140.213 22.5978V22.5974ZM149.984 27.8864L142.381 18.0246L146.683 13.3155L157.655 27.886H149.985L149.984 27.8864Z" fill="white"/>
<path d="M48.2562 43.8755L45.9373 37.7181H47.0058L49.0746 43.2862H48.4608L50.5523 37.7181H51.5374L49.2262 43.8755H48.2562Z" fill="white"/>
<path d="M73.0198 40.2778H75.6569V41.219H73.0198V40.2778ZM73.0956 42.9167H76.0889V43.8755H72.1104V37.7181H75.9828V38.6769H73.0956V42.9167Z" fill="white"/>
<path d="M97.1929 43.8755V37.7181H99.3754C99.8452 37.7181 100.247 37.8061 100.58 37.982C100.919 38.1579 101.179 38.4101 101.361 38.7385C101.543 39.0669 101.634 39.4568 101.634 39.9084C101.634 40.3599 101.543 40.7499 101.361 41.0783C101.179 41.4008 100.919 41.65 100.58 41.826C100.247 41.996 99.8452 42.0811 99.3754 42.0811H97.7385L98.178 41.5621V43.8755H97.1929ZM100.664 43.8755L99.3223 41.6412H100.376L101.725 43.8755H100.664ZM98.178 41.6852L97.7385 41.1399H99.3299C99.7644 41.1399 100.09 41.0314 100.307 40.8144C100.53 40.5974 100.641 40.2954 100.641 39.9084C100.641 39.5155 100.53 39.2135 100.307 39.0024C100.09 38.7912 99.7644 38.6857 99.3299 38.6857H97.7385L98.178 38.1227V41.6852Z" fill="white"/>
<path d="M124.386 43.9635C123.972 43.9635 123.575 43.896 123.196 43.7612C122.817 43.6204 122.517 43.4416 122.295 43.2246L122.636 42.3362C122.848 42.5297 123.11 42.6909 123.424 42.8199C123.737 42.949 124.058 43.0135 124.386 43.0135C124.664 43.0135 124.889 42.9783 125.06 42.9079C125.232 42.8375 125.359 42.7437 125.439 42.6264C125.52 42.5033 125.561 42.3655 125.561 42.213C125.561 42.0253 125.503 41.8758 125.386 41.7644C125.27 41.6471 125.119 41.5562 124.932 41.4917C124.75 41.4213 124.545 41.3568 124.318 41.2982C124.096 41.2395 123.871 41.1721 123.643 41.0959C123.421 41.0138 123.216 40.9111 123.03 40.788C122.848 40.659 122.699 40.4889 122.582 40.2778C122.466 40.0667 122.408 39.797 122.408 39.4686C122.408 39.1343 122.484 38.8294 122.636 38.5537C122.792 38.2723 123.027 38.0494 123.34 37.8852C123.659 37.7152 124.06 37.6301 124.545 37.6301C124.863 37.6301 125.179 37.677 125.492 37.7709C125.806 37.8647 126.078 37.9996 126.311 38.1755L126 39.0639C125.763 38.8997 125.518 38.7795 125.265 38.7033C125.012 38.6212 124.77 38.5801 124.538 38.5801C124.265 38.5801 124.042 38.6182 123.871 38.6945C123.704 38.7707 123.58 38.8704 123.499 38.9936C123.424 39.1167 123.386 39.2574 123.386 39.4158C123.386 39.6034 123.441 39.7559 123.552 39.8732C123.669 39.9846 123.818 40.0726 124 40.1371C124.186 40.2016 124.394 40.2661 124.621 40.3306C124.848 40.3892 125.073 40.4567 125.295 40.5329C125.523 40.6091 125.727 40.7088 125.909 40.832C126.096 40.9551 126.245 41.1223 126.356 41.3334C126.472 41.5445 126.531 41.8113 126.531 42.1338C126.531 42.4622 126.452 42.7672 126.296 43.0487C126.144 43.3243 125.909 43.5471 125.591 43.7172C125.273 43.8814 124.871 43.9635 124.386 43.9635Z" fill="white"/>
<path d="M148.423 40.2778H151.06V41.219H148.423V40.2778ZM148.498 42.9167H151.492V43.8755H147.513V37.7181H151.386V38.6769H148.498V42.9167Z" fill="white"/>
</svg>
